<svg xmlns="http://www.w3.org/2000/svg" version="1.1" xmlns:xlink="http://www.w3.org/1999/xlink" xmlns:svgjs="http://svgjs.dev/svgjs" width="128" height="128" viewBox="0 0 128 128"><g transform="matrix(0.8046875,0,0,0.8046875,12.506335372881338,27.051033654207338)"><svg viewBox="0 0 59 42" data-background-color="#162836" preserveAspectRatio="xMidYMid meet" height="91" width="128" xmlns="http://www.w3.org/2000/svg" xmlns:xlink="http://www.w3.org/1999/xlink"><g id="tight-bounds" transform="matrix(1,0,0,1,-0.0036289999999894462,0.19253633574963658)"><svg viewBox="0 0 59.00725799999999 41.61492732850072" height="41.61492732850072" width="59.00725799999999"><g><svg viewBox="0 0 59.00725799999999 41.61492732850072" height="41.61492732850072" width="59.00725799999999"><g><svg viewBox="0 0 59.00725799999999 41.61492732850072" height="41.61492732850072" width="59.00725799999999"><g><svg viewBox="0 0 59.00725799999999 41.61492732850072" height="41.61492732850072" width="59.00725799999999"><g id="textblocktransform"><svg viewBox="0 0 59.00725799999999 41.61492732850072" height="41.61492732850072" width="59.00725799999999" id="textblock"><g><svg viewBox="0 0 59.00725799999999 41.61492732850072" height="41.61492732850072" width="59.00725799999999"><g><svg viewBox="0 0 59.00725799999999 41.61492732850072" height="41.61492732850072" width="59.00725799999999"><g><svg xmlns="http://www.w3.org/2000/svg" xml:space="preserve" viewBox="0.5000000000000002 10.9 71.03853870664699 50.1" x="0" y="0" height="41.61492732850072" width="59.00725799999999" class="icon-icon-0" data-fill-palette-color="accent" id="icon-0"></svg></g></svg></g></svg></g></svg></g></svg></g></svg></g></svg></g><defs></defs><mask id="963f954a-eed1-45ed-bfe0-273669c4fd46"><g id="SvgjsG5732"><svg viewBox="0 0 59.00725799999999 41.61492732850072" height="41.61492732850072" width="59.00725799999999"><g><svg viewBox="0 0 59.00725799999999 41.61492732850072" height="41.61492732850072" width="59.00725799999999"><g><svg viewBox="0 0 59.00725799999999 41.61492732850072" height="41.61492732850072" width="59.00725799999999"><g><svg viewBox="0 0 59.00725799999999 41.61492732850072" height="41.61492732850072" width="59.00725799999999"><g id="SvgjsG5731"><svg viewBox="0 0 59.00725799999999 41.61492732850072" height="41.61492732850072" width="59.00725799999999" id="SvgjsSvg5730"><g><svg viewBox="0 0 59.00725799999999 41.61492732850072" height="41.61492732850072" width="59.00725799999999"><g><svg viewBox="0 0 59.00725799999999 41.61492732850072" height="41.61492732850072" width="59.00725799999999"><g><svg xmlns="http://www.w3.org/2000/svg" xml:space="preserve" viewBox="0.5000000000000002 10.9 71.03853870664699 50.1" x="0" y="0" height="41.61492732850072" width="59.00725799999999" class="icon-icon-0" data-fill-palette-color="accent" id="SvgjsSvg5729"><path d="M70.2 10.9H22.8c-0.6 0-1.1 0.4-1.3 1L8.8 59.4c-0.2 0.8 0.4 1.6 1.3 1.6h47.4c0.6 0 1.1-0.4 1.3-1l12.7-47.5c0.2-0.8-0.4-1.6-1.3-1.6M19.6 53.1l-1 3.7c-0.2 0.6-0.7 1-1.3 1h-3.6c-0.9 0-1.5-0.8-1.3-1.6l1-3.7c0.2-0.6 0.7-1 1.3-1h3.6c0.9-0.1 1.6 0.7 1.3 1.6m15.6-34.2l1-3.7c0.2-0.6 0.7-1 1.3-1h3.6c0.9 0 1.5 0.8 1.3 1.6l-1 3.7c-0.2 0.6-0.7 1-1.3 1h-3.6c-0.9 0.1-1.6-0.7-1.3-1.6m-12.8 0l1-3.7c0.2-0.6 0.7-1 1.3-1h3.6c0.9 0 1.5 0.8 1.3 1.6l-1 3.7c-0.2 0.6-0.7 1-1.3 1h-3.6c-0.9 0.1-1.5-0.7-1.3-1.6m10 34.2l-1 3.7c-0.2 0.6-0.7 1-1.3 1h-3.6c-0.9 0-1.5-0.8-1.3-1.6l1-3.7c0.2-0.6 0.7-1 1.3-1h3.6c0.9-0.1 1.5 0.7 1.3 1.6m12.7 0l-1 3.7c-0.2 0.6-0.7 1-1.3 1h-3.6c-0.9 0-1.5-0.8-1.3-1.6l1-3.7c0.2-0.6 0.7-1 1.3-1h3.6c0.9-0.1 1.5 0.7 1.3 1.6m0.5-15.9l-11.7 9.3c-1.4 1.1-3 0.3-2.6-1.2l5-18.5c0.4-1.5 2.5-2.3 3.2-1.2l6.8 9.3c0.5 0.6 0.2 1.6-0.7 2.3m2.3-18.3l1-3.7c0.2-0.6 0.7-1 1.3-1h3.6c0.9 0 1.5 0.8 1.3 1.6l-1 3.7c-0.2 0.6-0.7 1-1.3 1h-3.6c-0.9 0.1-1.6-0.7-1.3-1.6m9.9 34.2l-1 3.7c-0.2 0.6-0.7 1-1.3 1h-3.6c-0.9 0-1.5-0.8-1.3-1.6l1-3.7c0.2-0.6 0.7-1 1.3-1h3.6c0.9-0.1 1.5 0.7 1.3 1.6m10-37.2l-1 3.7c-0.2 0.6-0.7 1-1.3 1h-3.6c-0.9 0-1.5-0.8-1.3-1.6l1-3.7c0.2-0.6 0.7-1 1.3-1h3.6c0.9-0.1 1.5 0.7 1.3 1.6M3.2 24.1h9.4c1 0 1.7-0.8 1.7-1.7 0-1-0.8-1.7-1.7-1.7H3.2c-1 0-1.7 0.8-1.7 1.7 0 1 0.8 1.7 1.7 1.7M2.2 33.2h7.4c1 0 1.7-0.8 1.7-1.7 0-1-0.8-1.7-1.7-1.7H2.2c-1 0-1.7 0.8-1.7 1.7s0.8 1.7 1.7 1.7M8.4 38.8H3.2c-1 0-1.7 0.8-1.7 1.7 0 1 0.8 1.7 1.7 1.7h5.2c1 0 1.7-0.8 1.7-1.7s-0.8-1.7-1.7-1.7M5 47.9H2.2c-1 0-1.7 0.8-1.7 1.7 0 1 0.8 1.7 1.7 1.7H5c1 0 1.7-0.8 1.7-1.7 0-1-0.7-1.7-1.7-1.7" fill="white"></path></svg></g></svg></g></svg></g></svg></g></svg></g></svg></g></svg></g><defs><mask></mask></defs></svg><rect width="59.00725799999999" height="41.61492732850072" fill="black" stroke="none" visibility="hidden"></rect></g></mask><linearGradient x1="0" x2="1" y1="0.5" y2="0.5" id="d735bec9-3b40-46db-acc0-3d92bc03d033"><stop stop-color="#ffa62e" offset="0"></stop><stop stop-color="#f71b3d" offset="1"></stop></linearGradient><rect width="59.00725799999999" height="41.61492732850072" fill="url(#d735bec9-3b40-46db-acc0-3d92bc03d033)" mask="url(#963f954a-eed1-45ed-bfe0-273669c4fd46)" data-fill-palette-color="accent"></rect></svg><rect width="59.00725799999999" height="41.61492732850072" fill="none" stroke="none" visibility="hidden"></rect></g></svg></g></svg>